<svg width="512" height="512" viewBox="0 0 512 512" fill="none" xmlns="http://www.w3.org/2000/svg">
<g clip-path="url(#clip0_138_31)">
<path d="M502.646 233.217L502.625 233.206L278.646 9.08138C266.563 -3.0306 245.417 -3.02018 233.375 9.07096L9.35417 233.217C3.33333 239.273 0 247.309 0 255.846C0 264.393 3.33333 272.438 9.375 278.484L233.354 502.609C239.396 508.665 247.438 512.001 256 512.001C264.563 512.001 272.604 508.665 278.625 502.619L502.625 278.484C508.667 272.438 512 264.393 512 255.846C512 247.309 508.667 239.273 502.646 233.217Z" fill="#EF473B"/>
<path opacity="0.1" d="M505.194 270.718L278.861 497.188C272.777 503.296 264.651 506.667 256 506.667C247.349 506.667 239.223 503.296 233.118 497.177L6.80599 270.718C4.16146 268.071 2.14063 264.993 0.574219 261.71C1.73828 268.024 4.74089 273.847 9.375 278.483L233.354 502.608C239.396 508.664 247.438 512 256 512C264.563 512 272.604 508.664 278.625 502.619L502.625 278.483C507.259 273.847 510.263 268.024 511.427 261.71C509.861 264.993 507.839 268.071 505.194 270.718Z" fill="#010101"/>
<path d="M362.667 213.334C354.669 213.334 347.264 215.681 340.859 219.526L292.474 171.141C296.318 164.737 298.667 157.332 298.667 149.334C298.667 125.802 279.521 106.667 256 106.667C248.109 106.667 240.805 108.966 234.457 112.716L182.111 60.3635L167.031 75.4508L219.376 127.802C215.632 134.146 213.333 141.447 213.333 149.334C213.333 169.159 226.987 185.715 245.333 190.485V321.516C226.987 326.285 213.333 342.841 213.333 362.667C213.333 386.198 232.479 405.334 256 405.334C279.521 405.334 298.667 386.198 298.667 362.667C298.667 342.841 285.013 326.285 266.667 321.516V190.485C270.437 189.504 273.974 188.013 277.267 186.101L325.9 234.733C322.247 241.02 320 248.22 320 256C320 279.532 339.146 298.667 362.667 298.667C386.187 298.667 405.333 279.532 405.333 256C405.333 232.469 386.187 213.334 362.667 213.334Z" fill="white"/>
<path opacity="0.2" d="M9.35417 238.55L233.375 14.4043C245.417 2.31315 266.563 2.30274 278.646 14.4147L502.625 238.54L502.646 238.55C508.029 243.964 511.115 250.993 511.74 258.514C511.814 257.62 512 256.752 512 255.846C512 247.309 508.667 239.273 502.646 233.217L502.625 233.206L278.646 9.08138C266.563 -3.0306 245.417 -3.02018 233.375 9.07096L9.35417 233.217C3.33333 239.273 0 247.309 0 255.846C0 256.751 0.186197 257.619 0.260416 258.511C0.886718 250.99 3.97266 243.963 9.35417 238.55Z" fill="white"/>
<path d="M395.708 229.341C401.633 236.668 405.333 245.864 405.333 256C405.333 279.532 386.188 298.667 362.667 298.667C339.146 298.667 320 279.532 320 256C320 248.22 322.247 241.02 325.9 234.733L277.267 186.101C273.974 188.013 270.438 189.504 266.667 190.485V321.516C285.013 326.285 298.667 342.841 298.667 362.667C298.667 386.198 279.521 405.334 256 405.334C245.089 405.334 235.225 401.095 227.672 394.331L307.284 473.943L473.746 307.379L395.708 229.341ZM292.474 171.141L340.859 219.526C347.264 215.681 354.669 213.334 362.667 213.334C372.802 213.334 382 217.035 389.329 222.963L289.539 123.171L289.487 123.214C295.15 130.455 298.667 139.448 298.667 149.334C298.667 157.332 296.318 164.737 292.474 171.141Z" fill="url(#paint0_linear_138_31)"/>
<path d="M502.646 233.217L502.625 233.206L278.646 9.08138C266.563 -3.0306 245.417 -3.02018 233.375 9.07096L9.35417 233.217C3.33333 239.273 0 247.309 0 255.846C0 264.393 3.33333 272.438 9.375 278.484L233.354 502.609C239.396 508.665 247.438 512.001 256 512.001C264.562 512.001 272.604 508.665 278.625 502.619L502.625 278.484C508.667 272.438 512 264.393 512 255.846C512 247.309 508.667 239.273 502.646 233.217Z" fill="url(#paint1_linear_138_31)"/>
</g>
<defs>
<linearGradient id="paint0_linear_138_31" x1="206.278" y1="206.423" x2="390.541" y2="390.686" gradientUnits="userSpaceOnUse">
<stop stop-color="#010101" stop-opacity="0.1"/>
<stop offset="1" stop-color="#010101" stop-opacity="0"/>
</linearGradient>
<linearGradient id="paint1_linear_138_31" x1="42.9615" y1="156.585" x2="468.978" y2="355.24" gradientUnits="userSpaceOnUse">
<stop stop-color="white" stop-opacity="0.2"/>
<stop offset="1" stop-color="white" stop-opacity="0"/>
</linearGradient>
<clipPath id="clip0_138_31">
<rect width="512" height="512" fill="white"/>
</clipPath>
</defs>
</svg>
