<svg width="512" height="512" viewBox="0 0 512 512" fill="none" xmlns="http://www.w3.org/2000/svg">
<path fill-rule="evenodd" clip-rule="evenodd" d="M256.048 0C114.72 0 0.12793 114.592 0.12793 255.952C0.12793 369.024 73.4399 464.96 175.168 498.816C187.968 501.152 192 493.568 192 486.784C192 480.704 192.128 463.712 192 442.352C120.816 457.824 106.064 408.64 106.064 408.64C94.4319 379.072 77.6639 371.2 77.6639 371.2C54.4319 355.328 79.4079 355.632 79.4079 355.632C105.088 357.44 118.624 382.016 118.624 382.016C141.456 421.104 178.512 409.808 193.088 403.28C195.424 386.736 202.048 375.456 209.36 369.056C152.528 362.592 92.7839 340.64 92.7839 242.56C92.7839 214.608 102.752 191.776 119.12 173.888C116.48 167.424 107.68 141.392 121.632 106.144C121.632 106.144 143.12 99.264 192 132.4C212.416 126.72 234.32 123.888 256.08 123.792C277.824 123.888 299.712 126.72 320.16 132.4C369.04 99.28 390.496 106.144 390.496 106.144C404.448 141.392 395.664 167.424 393.04 173.888C409.408 191.776 419.344 214.608 419.344 242.56C419.344 340.896 359.504 362.528 302.48 368.848C311.664 376.768 320 392.128 320 416C320 448 320 478.432 320 486.848C320 493.696 324.128 501.264 337.12 498.784C438.752 464.88 512 368.992 512 255.952C512 114.592 397.408 0 256.048 0Z" fill="#181616"/>
</svg>
