<svg width="512" height="512" viewBox="0 0 512 512" fill="none" xmlns="http://www.w3.org/2000/svg">
<g clip-path="url(#clip0_138_46)">
<path d="M243.932 4.99872C250.598 -1.66624 261.404 -1.66624 268.068 4.99872L301.521 38.4515L239.392 138.815L147.052 101.879L243.932 4.99872Z" fill="black"/>
<path d="M120.792 128.139L82.8203 166.111L161.107 265.274L221.15 168.282L120.792 128.139Z" fill="black"/>
<path d="M58.5183 190.413L4.99906 243.932C4.20359 244.728 3.50303 245.582 2.89746 246.481L123.121 272.244L58.5183 190.413Z" fill="black"/>
<path d="M22.5269 285.596L56.8849 319.954L97.0199 301.559L22.5269 285.596Z" fill="black"/>
<path d="M82.6318 345.703L100.35 363.421L122.683 327.344L82.6318 345.703Z" fill="black"/>
<path d="M125.146 388.216L243.932 507.003C250.597 513.666 261.403 513.666 268.068 507.003L279.124 495.947L283.16 474.959L164.495 324.65L125.146 388.216Z" fill="black"/>
<path d="M322.159 452.912L407.071 367.998L341.202 353.884L322.159 452.912Z" fill="black"/>
<path d="M435.818 339.25L496.606 278.464L365.769 226.13L347.648 320.357L435.818 339.25Z" fill="black"/>
<path d="M509.3 246.778C508.648 245.769 507.884 244.814 507.003 243.932L443.413 180.343L396.718 201.745L509.3 246.778Z" fill="black"/>
<path d="M417.666 154.596L385.68 122.609L375.839 173.766L417.666 154.596Z" fill="black"/>
<path d="M356.526 93.456L326.316 63.2466L271.568 151.686L340.059 179.082L356.526 93.456Z" fill="black"/>
<path d="M204.742 289.734L329.803 232.414L314.267 313.203L204.742 289.734Z" fill="black"/>
<path d="M208.636 325.476L307.819 346.73L291.678 430.664L208.636 325.476Z" fill="black"/>
<path d="M211.181 249.235L310.141 203.878L253.327 181.152L211.181 249.235Z" fill="black"/>
</g>
<defs>
<clipPath id="clip0_138_46">
<rect width="512" height="512" fill="white"/>
</clipPath>
</defs>
</svg>
