<svg width="103" height="103" viewBox="0 0 103 103" fill="none" xmlns="http://www.w3.org/2000/svg">
<g clip-path="url(#clip0_138_2)">
<path d="M0.979964 35.9176C0.979964 35.9176 -1.52874 34.0897 1.4817 31.649L8.49561 25.3095C8.49561 25.3095 10.5026 23.1752 12.6245 25.0347L77.3491 74.5677V98.3195C77.3491 98.3195 77.3178 102.049 72.5824 101.637L0.979964 35.9176Z" fill="#0087D1"/>
<path d="M17.6626 51.2283L0.979678 66.559C0.979678 66.559 -0.734607 67.8482 0.979678 70.1515L8.72531 77.2727C8.72531 77.2727 10.565 79.2696 13.2828 76.998L30.9691 63.4424L17.6626 51.2283Z" fill="#006FB2"/>
<path d="M46.9508 51.3545L77.5466 27.7397L77.3479 4.1142C77.3479 4.1142 76.041 -1.04199 71.6824 1.64176L30.9682 39.0982L46.9508 51.3545Z" fill="#0078B9"/>
<path d="M72.5811 101.67C74.3578 103.508 76.5114 102.906 76.5114 102.906L100.355 91.0297C103.408 88.9268 102.979 86.317 102.979 86.317V15.3986C102.979 12.2817 99.8224 11.204 99.8224 11.204L79.1559 1.13462C74.6402 -1.68649 71.6824 1.64177 71.6824 1.64177C71.6824 1.64177 75.487 -1.12649 77.3479 4.11421V97.8869C77.3479 98.5315 77.2118 99.1654 76.9401 99.7358C76.3964 100.845 75.2153 101.881 72.3824 101.448L72.5811 101.67Z" fill="#23A9F2"/>
</g>
<defs>
<clipPath id="clip0_138_2">
<rect width="103" height="103" fill="white"/>
</clipPath>
</defs>
</svg>
