<svg width="500" height="500" viewBox="0 0 500 500" fill="none" xmlns="http://www.w3.org/2000/svg">
<g clip-path="url(#clip0_196_24)">
<rect width="500" height="500" rx="250" fill="white"/>
<path fill-rule="evenodd" clip-rule="evenodd" d="M233.984 -19C92.0684 -19 -23 98.9738 -23 244.506C-23 360.915 59.6007 465.182 161.752 500.037C174.605 502.442 178.654 494.634 178.654 487.65C178.654 481.39 178.782 463.897 178.654 441.907C107.174 457.835 92.3603 407.2 92.3603 407.2C80.6799 376.759 63.8422 368.655 63.8422 368.655C40.5136 352.314 65.5935 352.627 65.5935 352.627C91.3802 354.489 104.973 379.79 104.973 379.79C127.899 420.032 165.109 408.402 179.746 401.681C182.092 384.649 188.743 373.036 196.086 366.447C139.017 359.793 79.0251 337.193 79.0251 236.218C79.0251 207.441 89.0345 183.936 105.471 165.52C102.82 158.865 93.983 132.065 107.993 95.7764C107.993 95.7764 129.57 88.6933 178.654 122.807C199.154 116.96 221.149 114.044 243 113.945C264.834 114.044 286.813 116.96 307.346 122.807C356.43 88.7098 377.975 95.7764 377.975 95.7764C391.985 132.065 383.164 158.865 380.529 165.52C396.965 183.936 406.943 207.441 406.943 236.218C406.943 337.456 346.854 359.727 289.593 366.233C298.815 374.387 307.186 390.2 307.186 414.777C307.186 447.721 307.186 479.051 307.186 487.716C307.186 494.766 311.331 502.557 324.377 500.004C426.431 465.099 499.984 366.382 499.984 250.005C499.984 104.474 375.932 -19 233.984 -19Z" fill="black"/>
</g>
<defs>
<clipPath id="clip0_196_24">
<rect width="500" height="500" rx="250" fill="white"/>
</clipPath>
</defs>
</svg>
